Coordinates
version=1
nRows=11
nColumns=40
inDegrees=yes

Units are S.I. units (second, meters, Newtons, ...)
If the header above contains a line with 'inDegrees', this indicates whether rotational values are in degrees (yes) or radians (no).

endheader
time	pelvis_tilt	pelvis_list	pelvis_rotation	pelvis_tx	pelvis_ty	pelvis_tz	hip_flexion_r	hip_adduction_r	hip_rotation_r	knee_angle_r	knee_angle_r_beta	ankle_angle_r	subtalar_angle_r	mtp_angle_r	hip_flexion_l	hip_adduction_l	hip_rotation_l	knee_angle_l	knee_angle_l_beta	ankle_angle_l	subtalar_angle_l	mtp_angle_l	lumbar_extension	lumbar_bending	lumbar_rotation	arm_flex_r	arm_add_r	arm_rot_r	elbow_flex_r	pro_sup_r	wrist_flex_r	wrist_dev_r	arm_flex_l	arm_add_l	arm_rot_l	elbow_flex_l	pro_sup_l	wrist_flex_l	wrist_dev_l
      1.25000000	      9.76811453	      5.32464504	      1.14525980	     -0.32684147	      1.03814264	     -0.76368423	     -2.53622828	     -0.58723328	     -5.55645337	     11.11549954	      0.19400206	     -2.65780913	      0.00000000	      0.00000000	     19.76371795	      5.69295714	      2.78763815	      6.14758008	      0.10729551	     -4.98009098	      0.00000000	      0.00000000	    -20.85417730	     -3.22070242	     -1.45296393	     74.28752090	    -15.13184142	     19.37472935	     47.82889401	     87.55387134	      0.00000000	      0.00000000	     76.82207194	     -9.29622300	     20.18409099	     41.91912519	     86.78297481	      0.00000000	      0.00000000
      1.25500000	      9.75891660	      5.33688879	      1.09553739	     -0.32708473	      1.03808848	     -0.76358688	     -2.46955963	     -0.60647162	     -5.48661573	     11.19457564	      0.19538220	     -2.63579184	      0.00000000	      0.00000000	     19.88990658	      5.69866405	      2.69671836	      6.21918728	      0.10854529	     -4.95322511	      0.00000000	      0.00000000	    -20.87635472	     -3.24738452	     -1.40659260	     74.33478871	    -15.13241463	     19.44267781	     47.80228721	     87.56080324	      0.00000000	      0.00000000	     76.84946318	     -9.23912024	     20.02332548	     41.88323655	     86.88408511	      0.00000000	      0.00000000
      1.26000000	      9.74812652	      5.35888439	      1.07853980	     -0.32737227	      1.03803209	     -0.76352882	     -2.37821162	     -0.63844594	     -5.49169092	     11.31658254	      0.19751163	     -2.57616317	      0.00000000	      0.00000000	     19.99389409	      5.73241224	      2.80873174	      6.25276703	      0.10913137	     -4.93551947	      0.00000000	      0.00000000	    -20.90733822	     -3.27241163	     -1.39074786	     74.39281034	    -15.11690250	     19.45430410	     47.75296935	     87.49626807	      0.00000000	      0.00000000	     76.90192858	     -9.21871386	     20.01748584	     41.85194613	     86.98549161	      0.00000000	      0.00000000
      1.26500000	      9.74267658	      5.37264575	      1.07371242	     -0.32764232	      1.03800809	     -0.76345384	     -2.32031819	     -0.65541001	     -5.52859258	     11.39391719	      0.19886137	     -2.54786864	      0.00000000	      0.00000000	     20.08861707	      5.75108075	      2.87589965	      6.26580255	      0.10935888	     -4.94106210	      0.00000000	      0.00000000	    -20.98107800	     -3.28990773	     -1.39075456	     74.43716507	    -15.19094625	     19.57712870	     47.86406233	     87.54214607	      0.00000000	      0.00000000	     76.97301301	     -9.26424366	     20.11565835	     41.93805510	     86.88865303	      0.00000000	      0.00000000
      1.27000000	      9.78900787	      5.37094888	      1.03577146	     -0.32789148	      1.03808034	     -0.76332333	     -2.32758617	     -0.65236719	     -5.46121558	     11.43598964	      0.19959567	     -2.63096259	      0.00000000	      0.00000000	     20.03971436	      5.73048681	      2.94097586	      6.04672489	      0.10553526	     -5.30598672	      0.00000000	      0.00000000	    -21.10666467	     -3.30468746	     -1.30361671	     74.44172567	    -15.35553264	     19.67745129	     48.12278852	     87.63125061	      0.00000000	      0.00000000	     77.01024746	     -9.39593853	     20.61066877	     42.28842513	     86.38740466	      0.00000000	      0.00000000
      1.27500000	      9.70070276	      5.39098306	      1.04615935	     -0.32819838	      1.03785957	     -0.76330924	     -2.16864807	     -0.68021309	     -5.47948978	     11.53022428	      0.20124038	     -2.51091894	      0.00000000	      0.00000000	     20.36320836	      5.77108281	      2.83203126	      6.35669316	      0.11094523	     -5.01819396	      0.00000000	      0.00000000	    -21.02440567	     -3.32391103	     -1.34921100	     74.51226734	    -15.14562654	     19.50902534	     47.77088309	     87.55210739	      0.00000000	      0.00000000	     77.10453495	     -9.21056625	     20.14733662	     41.84212419	     86.83632871	      0.00000000	      0.00000000
      1.28000000	      9.68422788	      5.40591062	      1.00113327	     -0.32852357	      1.03777879	     -0.76317539	     -2.07274132	     -0.69904273	     -5.28330886	     11.64196098	      0.20319055	     -2.45227318	      0.00000000	      0.00000000	     20.51301589	      5.77631515	      2.65413195	      6.42907540	      0.11220853	     -5.01700776	      0.00000000	      0.00000000	    -21.05199591	     -3.36751879	     -1.31078470	     74.54618829	    -15.17169751	     19.58407466	     47.77970730	     87.69656496	      0.00000000	      0.00000000	     77.21347383	     -9.25709046	     20.44682407	     41.80456072	     86.63240625	      0.00000000	      0.00000000
      1.28500000	      9.68611186	      5.40698607	      1.01698698	     -0.32883047	      1.03777839	     -0.76315532	     -2.00890998	     -0.71385636	     -5.46765418	     11.74203208	      0.20493712	     -2.45915778	      0.00000000	      0.00000000	     20.58820523	      5.79383651	      2.90724010	      6.41630813	      0.11198570	     -5.11321601	      0.00000000	      0.00000000	    -21.12648745	     -3.34945986	     -1.33703664	     74.60909321	    -15.16080237	     19.64506555	     47.80401296	     87.50088111	      0.00000000	      0.00000000	     77.22888221	     -9.20484404	     20.10569587	     41.83325619	     86.96582156	      0.00000000	      0.00000000
      1.29000000	      9.66830517	      5.38921784	      1.00288434	     -0.32917727	      1.03772040	     -0.76303999	     -1.93863650	     -0.69372119	     -5.37834851	     11.79035750	      0.20578056	     -2.49190556	      0.00000000	      0.00000000	     20.72525254	      5.77196108	      2.94312089	      6.47404052	      0.11299332	     -5.08431331	      0.00000000	      0.00000000	    -21.16689547	     -3.34815863	     -1.30907734	     74.64007635	    -15.15062464	     19.57212310	     47.80244655	     87.54265763	      0.00000000	      0.00000000	     77.32777269	     -9.23349955	     20.28873037	     41.82021060	     86.89772344	      0.00000000	      0.00000000
      1.29500000	      9.68398705	      5.43645487	      0.95210814	     -0.32945665	      1.03770724	     -0.76292391	     -1.91718284	     -0.74645108	     -5.28699458	     11.82478524	      0.20638144	     -2.42561606	      0.00000000	      0.00000000	     20.82309291	      5.82353133	      2.84765597	      6.55494857	      0.11440543	     -5.04253051	      0.00000000	      0.00000000	    -21.22967778	     -3.41689499	     -1.27832495	     74.65489586	    -15.12893180	     19.48142485	     47.82300072	     87.66477356	      0.00000000	      0.00000000	     77.38547860	     -9.29683737	     20.52848521	     41.90545421	     86.58737971	      0.00000000	      0.00000000
      1.30000000	      9.64496050	      5.40921412	      0.98385098	     -0.32979096	      1.03760322	     -0.76292372	     -1.77010283	     -0.72901577	     -5.41435613	     12.00069750	      0.20945168	     -2.44044498	      0.00000000	      0.00000000	     20.99551236	      5.81502071	      3.04733530	      6.64440355	      0.11596672	     -4.97149901	      0.00000000	      0.00000000	    -21.25981649	     -3.36834273	     -1.31497378	     74.77183818	    -15.10080659	     19.59621156	     47.72335068	     87.63844242	      0.00000000	      0.00000000	     77.45630413	     -9.26014890	     20.36495752	     41.82533844	     86.69757956	      0.00000000	      0.00000000
